# xmcd CD database file
#
# Track frame offsets:
#	150
#	13104
#	25926
#	49896
#	61546
#	80153
#	100877
#	116045
#	136991
#	159963
#	178150
#	207795
#	216701
#
# Disc length: 3033 seconds
#
# Revision: 0
# Processed by: cddbd v1.5.2PL0 Copyright (c) Steve Scherf et al.
# Submitted via: CDex 1.70beta2
#
DISCID=b70bd70d
DTITLE=Kuddel ReNNer and His Amazing Blues Orchestra - From Apes, Women and Other Wild Things
DYEAR=2008
DGENRE=Blues
TTITLE0=Fishin` Blues
TTITLE1=Texas Boogie
TTITLE2=Talking to Myself
TTITLE3=Between the Devil and the Deep Blue Sea
TTITLE4=It Hurts Me Too
TTITLE5=Take Me Back to New Orleans
TTITLE6=Stop Breaking Down
TTITLE7=The Life of K.R.
TTITLE8=Three In One Bright Lights, Got Me Running
TTITLE9=Call Me the Breeze
TTITLE10=Mailbox Blues
TTITLE11=Lay Down
TTITLE12=Same Old Blues
EXTD=YEAR: 2008
EXTT0=
EXTT1=
EXTT2=
EXTT3=
EXTT4=
EXTT5=
EXTT6=
EXTT7=
EXTT8=
EXTT9=
EXTT10=
EXTT11=
EXTT12=
PLAYORDER=
